<svg xmlns="http://www.w3.org/2000/svg" viewBox="0 0 512 512" width="512" height="512">
  <!-- 背景 -->
  <rect width="512" height="512" fill="#1a1f2e" rx="64" ry="64"/>
  
  <!-- グラデーション定義 -->
  <defs>
    <linearGradient id="nodeGradient1" x1="0%" y1="0%" x2="100%" y2="100%">
      <stop offset="0%" style="stop-color:#4f46e5;stop-opacity:1" />
      <stop offset="100%" style="stop-color:#7c3aed;stop-opacity:1" />
    </linearGradient>
    <linearGradient id="nodeGradient2" x1="0%" y1="0%" x2="100%" y2="100%">
      <stop offset="0%" style="stop-color:#06b6d4;stop-opacity:1" />
      <stop offset="100%" style="stop-color:#0891b2;stop-opacity:1" />
    </linearGradient>
    <linearGradient id="nodeGradient3" x1="0%" y1="0%" x2="100%" y2="100%">
      <stop offset="0%" style="stop-color:#10b981;stop-opacity:1" />
      <stop offset="100%" style="stop-color:#059669;stop-opacity:1" />
    </linearGradient>
    <filter id="glow">
      <feGaussianBlur stdDeviation="8" result="coloredBlur"/>
      <feMerge>
        <feMergeNode in="coloredBlur"/>
        <feMergeNode in="SourceGraphic"/>
      </feMerge>
    </filter>
  </defs>
  
  <!-- エッジ（接続線） -->
  <g stroke="#64748b" stroke-width="6" fill="none" opacity="0.7">
    <!-- 上部ノードから中央への接続 -->
    <line x1="256" y1="120" x2="160" y2="256" stroke-linecap="round"/>
    <line x1="256" y1="120" x2="352" y2="256" stroke-linecap="round"/>
    
    <!-- 中央左から下部への接続 -->
    <line x1="160" y1="256" x2="256" y2="392" stroke-linecap="round"/>
    
    <!-- 中央右から下部への接続 -->
    <line x1="352" y1="256" x2="256" y2="392" stroke-linecap="round"/>
    
    <!-- 中央左右の接続 -->
    <line x1="160" y1="256" x2="352" y2="256" stroke-linecap="round"/>
  </g>
  
  <!-- ノード -->
  <g filter="url(#glow)">
    <!-- 上部中央ノード -->
    <circle cx="256" cy="120" r="40" fill="url(#nodeGradient1)"/>
    <circle cx="256" cy="120" r="32" fill="#1a1f2e" opacity="0.3"/>
    
    <!-- 中央左ノード -->
    <circle cx="160" cy="256" r="40" fill="url(#nodeGradient2)"/>
    <circle cx="160" cy="256" r="32" fill="#1a1f2e" opacity="0.3"/>
    
    <!-- 中央右ノード -->
    <circle cx="352" cy="256" r="40" fill="url(#nodeGradient3)"/>
    <circle cx="352" cy="256" r="32" fill="#1a1f2e" opacity="0.3"/>
    
    <!-- 下部中央ノード -->
    <circle cx="256" cy="392" r="40" fill="url(#nodeGradient1)"/>
    <circle cx="256" cy="392" r="32" fill="#1a1f2e" opacity="0.3"/>
  </g>
  
  <!-- 中心の強調点 -->
  <g>
    <circle cx="256" cy="120" r="12" fill="#ffffff" opacity="0.9"/>
    <circle cx="160" cy="256" r="12" fill="#ffffff" opacity="0.9"/>
    <circle cx="352" cy="256" r="12" fill="#ffffff" opacity="0.9"/>
    <circle cx="256" cy="392" r="12" fill="#ffffff" opacity="0.9"/>
  </g>
</svg>